<?xml version="1.0" encoding="utf-8"?>
<!-- Generator: Adobe Illustrator 19.1.0, SVG Export Plug-In . SVG Version: 6.00 Build 0)  -->
<svg version="1.1" id="Layer_1" xmlns="http://www.w3.org/2000/svg" xmlns:xlink="http://www.w3.org/1999/xlink" x="0px" y="0px"
	 viewBox="-292 197.3 413.9 107.7" style="enable-background:new -292 197.3 413.9 107.7;" xml:space="preserve">
<style type="text/css">
	.st0{fill:#F9CD15;}
	.st1{fill:#DCDFE0;}
	.st2{fill:#35B7F9;}
	.st3{fill:#F7AC16;}
	.st4{fill:#FFFFFF;}
</style>
<g>
	<path class="st0" d="M-140.3,215.8l-11.2,22.5l24.5-6.1c0.2-0.1,0.5-0.1,0.7-0.1c0.8,0,1.5,0.4,2.1,0.9c0.8,0.8,0.9,1.8,0.5,2.8
		l-33.4,67.7c-0.5,0.9-1.5,1.5-2.6,1.5c-0.2,0-0.6-0.1-0.9-0.1c-1.4-0.4-2.2-1.7-1.9-3l12.2-46l-25.1,6.3c-0.2,0.1-0.5,0.1-0.7,0.1
		c-0.7,0-1.4-0.2-1.9-0.7c-0.7-0.6-1-1.5-0.8-2.4l12.4-38.3L-140.3,215.8z"/>
</g>
<g>
	<path class="st1" d="M-76.4,282.8c0,1.8-0.9,2.7-2.6,2.7h-8.5c-2,0-2.9-0.6-3.6-2.3l-14.5-35.7v35.3c0,1.8-0.9,2.7-2.7,2.7h-9.2
		c-1.7,0-2.6-0.9-2.6-2.7v-65.2c0-1.8,0.9-2.7,2.6-2.7h8.5c2,0,2.9,0.6,3.6,2.3l14.5,35.6v-35.2c0-1.8,0.9-2.7,2.7-2.7h9.2
		c1.7,0,2.6,0.9,2.6,2.7V282.8z"/>
	<path class="st1" d="M-57.9,286.4c-4.7,0-10.4-0.6-12.9-1.4c-2.1-0.6-3-1.2-3-3.2v-7.9c0-1.9,1.2-2.7,3.4-2
		c1.9,0.6,5.5,1.1,8.8,1.1c5.7,0,8.9-1.8,8.9-6.5c0-4.1-1.8-6.2-8.7-11.2c-6.5-4.8-12.3-10.6-12.3-22.3c0-13.1,5.3-19.1,20.4-19.1
		c4.1,0,8.2,0.5,10.5,1c1.9,0.5,2.8,1.3,2.8,3.3v8.1c0,1.9-1.2,2.5-3.5,2c-1.2-0.3-4.7-0.9-7.7-0.9c-5.2,0-7,1.9-7,5.9
		c0,4.8,4.1,8.5,8.2,11.6c8.3,6.4,12.9,11.5,12.9,22.1C-37.1,280.7-46.2,286.4-57.9,286.4z"/>
	<path class="st1" d="M-32.4,285.5c-1.7,0-2.6-0.9-2.6-2.6v-65.3c0-1.8,0.9-2.7,2.6-2.7h15.5c17.1,0,23.5,5.6,23.5,25.6
		c0,19.7-6.4,25.4-23.5,25.4H-20v17c0,1.7-0.9,2.6-2.7,2.6H-32.4z M-16.9,252.5c6.7,0,8.2-2.4,8.2-12s-1.5-12-8.2-12H-20v24H-16.9z"
		/>
	<path class="st1" d="M24,256.2v15.5h17.8c1.7,0,2.7,1,2.7,2.7v8.4c0,1.8-1,2.7-2.7,2.7h-30c-1.7,0-2.6-0.9-2.6-2.7v-65.2
		c0-1.8,0.9-2.7,2.6-2.7h29.6c1.8,0,2.7,0.9,2.7,2.7v8.4c0,1.7-0.9,2.6-2.7,2.6H24v14.3h16.5c1.8,0,2.7,0.9,2.7,2.7v7.9
		c0,1.8-0.9,2.7-2.7,2.7H24L24,256.2z"/>
	<path class="st1" d="M80.1,272.1c2-0.4,3,0.4,3,2.3v7.7c0,2.1-0.8,2.7-2.6,3.2c-2.2,0.5-6,1.1-9.7,1.1c-17.7,0-24.7-7.1-24.7-36.4
		c0-28.8,6.8-36.1,24.4-36.1c3.4,0,7.1,0.6,9.5,1.1c1.8,0.3,2.6,1.1,2.6,3.2v7.8c0,1.9-1,2.6-3,2.3c-1.3-0.3-3.9-0.7-6.2-0.7
		c-9.5,0-12,4-12,22.4c0,18.8,2.6,22.8,12.3,22.8C76.2,272.8,78.8,272.4,80.1,272.1z"/>
	<path class="st1" d="M85.3,217.6c0-1.8,0.9-2.7,2.7-2.7h31.2c1.8,0,2.7,0.9,2.7,2.7v8.4c0,1.7-0.9,2.6-2.7,2.6h-8.1v54.2
		c0,1.8-0.9,2.7-2.7,2.7h-9.7c-1.7,0-2.6-0.9-2.6-2.7v-54.2H88c-1.8,0-2.7-0.9-2.7-2.6C85.3,226,85.3,217.6,85.3,217.6z"/>
</g>
<path class="st2" d="M-165.5,212.3"/>
<path class="st3" d="M-135.5,201c1.2-3.4-2.5-3.7-2.5-3.7l-19.6,2.8c-2.7,0-3.4,2.2-3.4,2.2l-4.5,13.9l26.3-5"/>
<g>
	<g>
		<path class="st4" d="M-253.5,214.9c1.6,0,2.5,1,2.6,2.6l4.4,34.1l1.5,15h0.2l1.6-15l4.6-34.1c0.3-1.7,0.9-2.6,2.6-2.6h9.7
			c1.6,0,2.4,1.1,2.1,2.9l-10.2,64.4c-0.4,2.3-1.5,3.3-3.3,3.3h-11.9c-1.8,0-2.9-1-3.3-3.3l-3.4-22.4l-1.8-16.6h-0.2l-1.9,16.6
			l-3.4,22.4c-0.4,2.3-1.5,3.3-3.2,3.3h-12c-1.8,0-2.9-1-3.3-3.3l-10.1-64.4c-0.3-1.8,0.4-2.9,2.1-2.9h9.7c1.6,0,2.3,0.9,2.6,2.6
			l4.6,34.1l1.6,15h0.2l1.5-15l4.4-34.1c0.2-1.6,1-2.6,2.6-2.6H-253.5z"/>
	</g>
	<g>
		<path class="st4" d="M-218.5,285.5c-1.7,0-2.6-0.9-2.6-2.6v-65.3c0-1.8,0.9-2.7,2.6-2.7h15.5c17.1,0,23.5,5.6,23.5,25.6
			c0,19.7-6.4,25.4-23.5,25.4h-3.1v17c0,1.7-0.9,2.6-2.7,2.6H-218.5z M-203,252.5c6.7,0,8.2-2.4,8.2-12s-1.5-12-8.2-12h-3.1v24H-203
			z"/>
	</g>
</g>
</svg>
